<mxfile host="app.diagrams.net" modified="2021-11-01T13:35:56.939Z" agent="5.0 (Windows NT 10.0; Win64; x64) AppleWebKit/537.36 (KHTML, like Gecko) Chrome/95.0.4638.54 Safari/537.36" etag="qXrquEKI9N2lm4Nr-oe7" version="15.6.3" type="github">
  <diagram id="4AThORxVZcJ4zeDrusvJ" name="Page-1">
    <mxGraphModel dx="2557" dy="912" grid="1" gridSize="10" guides="1" tooltips="1" connect="1" arrows="1" fold="1" page="1" pageScale="1" pageWidth="827" pageHeight="1169" math="0" shadow="0">
      <root>
        <mxCell id="0" />
        <mxCell id="1" parent="0" />
        <mxCell id="PBnQgTFj27SzLwrIIvQW-5" value="" style="rounded=0;whiteSpace=wrap;html=1;" vertex="1" parent="1">
          <mxGeometry x="-41" y="540" width="910" height="2050" as="geometry" />
        </mxCell>
        <mxCell id="PBnQgTFj27SzLwrIIvQW-10" value="" style="rounded=0;whiteSpace=wrap;html=1;fontSize=17;" vertex="1" parent="1">
          <mxGeometry x="-21" y="560" width="870" height="2010" as="geometry" />
        </mxCell>
        <mxCell id="PBnQgTFj27SzLwrIIvQW-12" value="Parser" style="text;html=1;strokeColor=none;fillColor=none;align=center;verticalAlign=middle;whiteSpace=wrap;rounded=0;fontSize=17;fontStyle=1" vertex="1" parent="1">
          <mxGeometry x="40" y="590" width="60" height="30" as="geometry" />
        </mxCell>
        <mxCell id="PBnQgTFj27SzLwrIIvQW-8" value="" style="rounded=0;whiteSpace=wrap;html=1;" vertex="1" parent="1">
          <mxGeometry x="20" y="640" width="390" height="560" as="geometry" />
        </mxCell>
        <mxCell id="o_SGnGbDhmQAraUmnpOO-2" value="" style="rounded=0;whiteSpace=wrap;html=1;" parent="1" vertex="1">
          <mxGeometry x="180" y="652.5" width="70" height="45" as="geometry" />
        </mxCell>
        <mxCell id="o_SGnGbDhmQAraUmnpOO-3" value="source code" style="text;html=1;strokeColor=none;fillColor=none;align=center;verticalAlign=middle;whiteSpace=wrap;rounded=0;" parent="1" vertex="1">
          <mxGeometry x="185" y="660" width="60" height="30" as="geometry" />
        </mxCell>
        <mxCell id="o_SGnGbDhmQAraUmnpOO-4" value="" style="endArrow=classic;html=1;rounded=0;entryX=0.5;entryY=0;entryDx=0;entryDy=0;exitX=0.5;exitY=1;exitDx=0;exitDy=0;" parent="1" source="o_SGnGbDhmQAraUmnpOO-2" edge="1" target="o_SGnGbDhmQAraUmnpOO-5">
          <mxGeometry width="50" height="50" relative="1" as="geometry">
            <mxPoint x="200" y="700" as="sourcePoint" />
            <mxPoint x="30" y="940" as="targetPoint" />
          </mxGeometry>
        </mxCell>
        <mxCell id="o_SGnGbDhmQAraUmnpOO-5" value="" style="rounded=0;whiteSpace=wrap;html=1;" parent="1" vertex="1">
          <mxGeometry x="40" y="720" width="350" height="460" as="geometry" />
        </mxCell>
        <mxCell id="o_SGnGbDhmQAraUmnpOO-6" value="Lexer" style="swimlane;fontStyle=1;align=center;verticalAlign=top;childLayout=stackLayout;horizontal=1;startSize=26;horizontalStack=0;resizeParent=1;resizeParentMax=0;resizeLast=0;collapsible=1;marginBottom=0;" parent="1" vertex="1">
          <mxGeometry x="50" y="730" width="150" height="350" as="geometry" />
        </mxCell>
        <mxCell id="o_SGnGbDhmQAraUmnpOO-7" value="+ input: string" style="text;strokeColor=none;fillColor=none;align=left;verticalAlign=top;spacingLeft=4;spacingRight=4;overflow=hidden;rotatable=0;points=[[0,0.5],[1,0.5]];portConstraint=eastwest;" parent="o_SGnGbDhmQAraUmnpOO-6" vertex="1">
          <mxGeometry y="26" width="150" height="26" as="geometry" />
        </mxCell>
        <mxCell id="o_SGnGbDhmQAraUmnpOO-10" value="+ position: int" style="text;strokeColor=none;fillColor=none;align=left;verticalAlign=top;spacingLeft=4;spacingRight=4;overflow=hidden;rotatable=0;points=[[0,0.5],[1,0.5]];portConstraint=eastwest;" parent="o_SGnGbDhmQAraUmnpOO-6" vertex="1">
          <mxGeometry y="52" width="150" height="26" as="geometry" />
        </mxCell>
        <mxCell id="o_SGnGbDhmQAraUmnpOO-12" value="+ readPosition: int" style="text;strokeColor=none;fillColor=none;align=left;verticalAlign=top;spacingLeft=4;spacingRight=4;overflow=hidden;rotatable=0;points=[[0,0.5],[1,0.5]];portConstraint=eastwest;" parent="o_SGnGbDhmQAraUmnpOO-6" vertex="1">
          <mxGeometry y="78" width="150" height="26" as="geometry" />
        </mxCell>
        <mxCell id="o_SGnGbDhmQAraUmnpOO-11" value="+ ch: byte" style="text;strokeColor=none;fillColor=none;align=left;verticalAlign=top;spacingLeft=4;spacingRight=4;overflow=hidden;rotatable=0;points=[[0,0.5],[1,0.5]];portConstraint=eastwest;" parent="o_SGnGbDhmQAraUmnpOO-6" vertex="1">
          <mxGeometry y="104" width="150" height="26" as="geometry" />
        </mxCell>
        <mxCell id="o_SGnGbDhmQAraUmnpOO-8" value="" style="line;strokeWidth=1;fillColor=none;align=left;verticalAlign=middle;spacingTop=-1;spacingLeft=3;spacingRight=3;rotatable=0;labelPosition=right;points=[];portConstraint=eastwest;" parent="o_SGnGbDhmQAraUmnpOO-6" vertex="1">
          <mxGeometry y="130" width="150" height="10" as="geometry" />
        </mxCell>
        <mxCell id="o_SGnGbDhmQAraUmnpOO-9" value="+ NextToken(): Token" style="text;strokeColor=none;fillColor=none;align=left;verticalAlign=top;spacingLeft=4;spacingRight=4;overflow=hidden;rotatable=0;points=[[0,0.5],[1,0.5]];portConstraint=eastwest;" parent="o_SGnGbDhmQAraUmnpOO-6" vertex="1">
          <mxGeometry y="140" width="150" height="30" as="geometry" />
        </mxCell>
        <mxCell id="o_SGnGbDhmQAraUmnpOO-37" value="+ peekChar(): byte" style="text;strokeColor=none;fillColor=none;align=left;verticalAlign=top;spacingLeft=4;spacingRight=4;overflow=hidden;rotatable=0;points=[[0,0.5],[1,0.5]];portConstraint=eastwest;" parent="o_SGnGbDhmQAraUmnpOO-6" vertex="1">
          <mxGeometry y="170" width="150" height="30" as="geometry" />
        </mxCell>
        <mxCell id="o_SGnGbDhmQAraUmnpOO-42" value="+ skipWhitespaces(): void" style="text;strokeColor=none;fillColor=none;align=left;verticalAlign=top;spacingLeft=4;spacingRight=4;overflow=hidden;rotatable=0;points=[[0,0.5],[1,0.5]];portConstraint=eastwest;" parent="o_SGnGbDhmQAraUmnpOO-6" vertex="1">
          <mxGeometry y="200" width="150" height="30" as="geometry" />
        </mxCell>
        <mxCell id="o_SGnGbDhmQAraUmnpOO-38" value="+ readChar(): void" style="text;strokeColor=none;fillColor=none;align=left;verticalAlign=top;spacingLeft=4;spacingRight=4;overflow=hidden;rotatable=0;points=[[0,0.5],[1,0.5]];portConstraint=eastwest;" parent="o_SGnGbDhmQAraUmnpOO-6" vertex="1">
          <mxGeometry y="230" width="150" height="30" as="geometry" />
        </mxCell>
        <mxCell id="o_SGnGbDhmQAraUmnpOO-39" value="+ readIdentifier(): string" style="text;strokeColor=none;fillColor=none;align=left;verticalAlign=top;spacingLeft=4;spacingRight=4;overflow=hidden;rotatable=0;points=[[0,0.5],[1,0.5]];portConstraint=eastwest;" parent="o_SGnGbDhmQAraUmnpOO-6" vertex="1">
          <mxGeometry y="260" width="150" height="30" as="geometry" />
        </mxCell>
        <mxCell id="o_SGnGbDhmQAraUmnpOO-40" value="+ readNumber(): string" style="text;strokeColor=none;fillColor=none;align=left;verticalAlign=top;spacingLeft=4;spacingRight=4;overflow=hidden;rotatable=0;points=[[0,0.5],[1,0.5]];portConstraint=eastwest;" parent="o_SGnGbDhmQAraUmnpOO-6" vertex="1">
          <mxGeometry y="290" width="150" height="30" as="geometry" />
        </mxCell>
        <mxCell id="o_SGnGbDhmQAraUmnpOO-41" value="+ readString(): string" style="text;strokeColor=none;fillColor=none;align=left;verticalAlign=top;spacingLeft=4;spacingRight=4;overflow=hidden;rotatable=0;points=[[0,0.5],[1,0.5]];portConstraint=eastwest;" parent="o_SGnGbDhmQAraUmnpOO-6" vertex="1">
          <mxGeometry y="320" width="150" height="30" as="geometry" />
        </mxCell>
        <mxCell id="o_SGnGbDhmQAraUmnpOO-13" value="Token" style="swimlane;fontStyle=0;childLayout=stackLayout;horizontal=1;startSize=26;fillColor=none;horizontalStack=0;resizeParent=1;resizeParentMax=0;resizeLast=0;collapsible=1;marginBottom=0;" parent="1" vertex="1">
          <mxGeometry x="50" y="1090" width="150" height="78" as="geometry">
            <mxRectangle x="320" y="108" width="150" height="26" as="alternateBounds" />
          </mxGeometry>
        </mxCell>
        <mxCell id="o_SGnGbDhmQAraUmnpOO-14" value="+ Type: TokenType" style="text;strokeColor=none;fillColor=none;align=left;verticalAlign=top;spacingLeft=4;spacingRight=4;overflow=hidden;rotatable=0;points=[[0,0.5],[1,0.5]];portConstraint=eastwest;" parent="o_SGnGbDhmQAraUmnpOO-13" vertex="1">
          <mxGeometry y="26" width="150" height="26" as="geometry" />
        </mxCell>
        <mxCell id="o_SGnGbDhmQAraUmnpOO-15" value="+ Literal: string" style="text;strokeColor=none;fillColor=none;align=left;verticalAlign=top;spacingLeft=4;spacingRight=4;overflow=hidden;rotatable=0;points=[[0,0.5],[1,0.5]];portConstraint=eastwest;" parent="o_SGnGbDhmQAraUmnpOO-13" vertex="1">
          <mxGeometry y="52" width="150" height="26" as="geometry" />
        </mxCell>
        <mxCell id="o_SGnGbDhmQAraUmnpOO-33" value="TokenType" style="swimlane;fontStyle=0;childLayout=stackLayout;horizontal=1;startSize=26;fillColor=none;horizontalStack=0;resizeParent=1;resizeParentMax=0;resizeLast=0;collapsible=1;marginBottom=0;" parent="1" vertex="1">
          <mxGeometry x="210" y="730" width="170" height="440" as="geometry" />
        </mxCell>
        <mxCell id="o_SGnGbDhmQAraUmnpOO-32" value="&lt;ul style=&quot;line-height: 0.9&quot;&gt;&lt;li&gt;&lt;span style=&quot;font-size: 10px&quot;&gt;ILLEGAL = &quot;ILLEGAL&quot;&lt;/span&gt;&lt;/li&gt;&lt;li&gt;&lt;span style=&quot;font-size: 10px&quot;&gt;EOF = &quot;EOF&quot;&lt;/span&gt;&lt;/li&gt;&lt;li&gt;&lt;span style=&quot;font-size: 10px&quot;&gt;IDENT = &quot;IDENT&quot;&lt;/span&gt;&lt;/li&gt;&lt;li&gt;&lt;span style=&quot;font-size: 10px&quot;&gt;INT = &quot;INT&quot;&lt;/span&gt;&lt;/li&gt;&lt;li&gt;&lt;span style=&quot;font-size: 10px&quot;&gt;STRING = &quot;STRING&quot;&lt;/span&gt;&lt;/li&gt;&lt;li&gt;&lt;span style=&quot;font-size: 10px&quot;&gt;ASSIGN = &quot;=&quot;&lt;/span&gt;&lt;/li&gt;&lt;li&gt;&lt;span style=&quot;font-size: 10px&quot;&gt;PLUS = &quot;+&quot;&lt;/span&gt;&lt;/li&gt;&lt;li&gt;&lt;span style=&quot;font-size: 10px&quot;&gt;MINUS = &quot;-&quot;&lt;/span&gt;&lt;/li&gt;&lt;li&gt;&lt;span style=&quot;font-size: 10px&quot;&gt;BANG = &quot;!&quot;&lt;/span&gt;&lt;/li&gt;&lt;li&gt;&lt;span style=&quot;font-size: 10px&quot;&gt;ASTERISK = &quot;*&quot;&lt;/span&gt;&lt;/li&gt;&lt;li&gt;&lt;span style=&quot;font-size: 10px&quot;&gt;SLASH = &quot;/&quot;&lt;/span&gt;&lt;/li&gt;&lt;li&gt;&lt;span style=&quot;font-size: 10px&quot;&gt;LT = &quot;&amp;lt;&quot;&lt;/span&gt;&lt;/li&gt;&lt;li&gt;&lt;span style=&quot;font-size: 10px&quot;&gt;GT = &quot;&amp;gt;&quot;&lt;/span&gt;&lt;/li&gt;&lt;li&gt;&lt;span style=&quot;font-size: 10px&quot;&gt;EQ = &quot;==&quot;&lt;/span&gt;&lt;/li&gt;&lt;li&gt;&lt;span style=&quot;font-size: 10px&quot;&gt;NOT_EQ = &quot;!=&quot;&lt;/span&gt;&lt;/li&gt;&lt;li&gt;&lt;span style=&quot;font-size: 10px&quot;&gt;COMMA = &quot;,&quot;&lt;/span&gt;&lt;/li&gt;&lt;li&gt;&lt;span style=&quot;font-size: 10px&quot;&gt;SEMICOLON = &quot;;&quot;&lt;/span&gt;&lt;/li&gt;&lt;li&gt;&lt;span style=&quot;font-size: 10px&quot;&gt;LPAREN = &quot;{&quot;&lt;/span&gt;&lt;/li&gt;&lt;li&gt;&lt;span style=&quot;font-size: 10px&quot;&gt;RPAREN = &quot;}&quot;&lt;/span&gt;&lt;/li&gt;&lt;li&gt;&lt;span style=&quot;font-size: 10px&quot;&gt;LBRACE = &quot;(&quot;&lt;/span&gt;&lt;/li&gt;&lt;li&gt;&lt;span style=&quot;font-size: 10px&quot;&gt;RBRACE = &quot;)&quot;&lt;/span&gt;&lt;/li&gt;&lt;li&gt;&lt;span style=&quot;font-size: 10px&quot;&gt;LBRACKET = &quot;[&quot;&lt;/span&gt;&lt;/li&gt;&lt;li&gt;&lt;span style=&quot;font-size: 10px&quot;&gt;RBRACKET = &quot;]&quot;&lt;/span&gt;&lt;/li&gt;&lt;li&gt;&lt;span style=&quot;font-size: 10px&quot;&gt;COLON = &quot;:&quot;&lt;/span&gt;&lt;/li&gt;&lt;li&gt;&lt;span style=&quot;font-size: 10px&quot;&gt;FUNCTION = &quot;FUNCTION&quot;&lt;/span&gt;&lt;/li&gt;&lt;li&gt;&lt;span style=&quot;font-size: 10px&quot;&gt;LET = &quot;LET&quot;&lt;/span&gt;&lt;/li&gt;&lt;li&gt;&lt;span style=&quot;font-size: 10px&quot;&gt;TRUE = &quot;TRUE&quot;&lt;/span&gt;&lt;/li&gt;&lt;li&gt;&lt;span style=&quot;font-size: 10px&quot;&gt;FALSE = &quot;FALSE&quot;&lt;/span&gt;&lt;/li&gt;&lt;li&gt;&lt;span style=&quot;font-size: 10px&quot;&gt;IF = &quot;IF&quot;&lt;/span&gt;&lt;/li&gt;&lt;li&gt;&lt;span style=&quot;font-size: 10px&quot;&gt;ELSE = &quot;ELSE&quot;&lt;/span&gt;&lt;/li&gt;&lt;li&gt;&lt;span style=&quot;font-size: 10px&quot;&gt;RETURN = &quot;RETURN&quot;&lt;/span&gt;&lt;/li&gt;&lt;/ul&gt;" style="text;html=1;strokeColor=none;fillColor=none;align=left;verticalAlign=middle;whiteSpace=wrap;rounded=0;" parent="o_SGnGbDhmQAraUmnpOO-33" vertex="1">
          <mxGeometry y="26" width="170" height="414" as="geometry" />
        </mxCell>
        <mxCell id="PBnQgTFj27SzLwrIIvQW-13" value="Lexer" style="text;html=1;strokeColor=none;fillColor=none;align=center;verticalAlign=middle;whiteSpace=wrap;rounded=0;fontSize=17;fontStyle=1" vertex="1" parent="1">
          <mxGeometry x="40" y="660" width="60" height="30" as="geometry" />
        </mxCell>
        <mxCell id="PBnQgTFj27SzLwrIIvQW-16" value="Parser" style="swimlane;fontStyle=1;align=center;verticalAlign=top;childLayout=stackLayout;horizontal=1;startSize=26;horizontalStack=0;resizeParent=1;resizeParentMax=0;resizeLast=0;collapsible=1;marginBottom=0;fontSize=15;" vertex="1" parent="1">
          <mxGeometry x="10" y="1270" width="410" height="1048" as="geometry" />
        </mxCell>
        <mxCell id="PBnQgTFj27SzLwrIIvQW-17" value="+ lexer: Lexer" style="text;strokeColor=none;fillColor=none;align=left;verticalAlign=top;spacingLeft=4;spacingRight=4;overflow=hidden;rotatable=0;points=[[0,0.5],[1,0.5]];portConstraint=eastwest;fontSize=13;" vertex="1" parent="PBnQgTFj27SzLwrIIvQW-16">
          <mxGeometry y="26" width="410" height="26" as="geometry" />
        </mxCell>
        <mxCell id="PBnQgTFj27SzLwrIIvQW-21" value="+ errors: string[]" style="text;strokeColor=none;fillColor=none;align=left;verticalAlign=top;spacingLeft=4;spacingRight=4;overflow=hidden;rotatable=0;points=[[0,0.5],[1,0.5]];portConstraint=eastwest;fontSize=13;" vertex="1" parent="PBnQgTFj27SzLwrIIvQW-16">
          <mxGeometry y="52" width="410" height="26" as="geometry" />
        </mxCell>
        <mxCell id="PBnQgTFj27SzLwrIIvQW-20" value="+ curToken: Token" style="text;strokeColor=none;fillColor=none;align=left;verticalAlign=top;spacingLeft=4;spacingRight=4;overflow=hidden;rotatable=0;points=[[0,0.5],[1,0.5]];portConstraint=eastwest;fontSize=13;" vertex="1" parent="PBnQgTFj27SzLwrIIvQW-16">
          <mxGeometry y="78" width="410" height="26" as="geometry" />
        </mxCell>
        <mxCell id="PBnQgTFj27SzLwrIIvQW-22" value="+ peekToken: Token" style="text;strokeColor=none;fillColor=none;align=left;verticalAlign=top;spacingLeft=4;spacingRight=4;overflow=hidden;rotatable=0;points=[[0,0.5],[1,0.5]];portConstraint=eastwest;fontSize=13;" vertex="1" parent="PBnQgTFj27SzLwrIIvQW-16">
          <mxGeometry y="104" width="410" height="26" as="geometry" />
        </mxCell>
        <mxCell id="PBnQgTFj27SzLwrIIvQW-23" value="+ prefixParserFns: map[TokenType]PrefixParserFn" style="text;strokeColor=none;fillColor=none;align=left;verticalAlign=top;spacingLeft=4;spacingRight=4;overflow=hidden;rotatable=0;points=[[0,0.5],[1,0.5]];portConstraint=eastwest;fontSize=13;" vertex="1" parent="PBnQgTFj27SzLwrIIvQW-16">
          <mxGeometry y="130" width="410" height="26" as="geometry" />
        </mxCell>
        <mxCell id="PBnQgTFj27SzLwrIIvQW-24" value="+ infixParserFns: map[TokenType]InfixParserFn" style="text;strokeColor=none;fillColor=none;align=left;verticalAlign=top;spacingLeft=4;spacingRight=4;overflow=hidden;rotatable=0;points=[[0,0.5],[1,0.5]];portConstraint=eastwest;fontSize=13;" vertex="1" parent="PBnQgTFj27SzLwrIIvQW-16">
          <mxGeometry y="156" width="410" height="26" as="geometry" />
        </mxCell>
        <mxCell id="PBnQgTFj27SzLwrIIvQW-18" value="" style="line;strokeWidth=1;fillColor=none;align=left;verticalAlign=middle;spacingTop=-1;spacingLeft=3;spacingRight=3;rotatable=0;labelPosition=right;points=[];portConstraint=eastwest;fontSize=17;" vertex="1" parent="PBnQgTFj27SzLwrIIvQW-16">
          <mxGeometry y="182" width="410" height="8" as="geometry" />
        </mxCell>
        <mxCell id="PBnQgTFj27SzLwrIIvQW-19" value="+ nextToken(): void" style="text;strokeColor=none;fillColor=none;align=left;verticalAlign=top;spacingLeft=4;spacingRight=4;overflow=hidden;rotatable=0;points=[[0,0.5],[1,0.5]];portConstraint=eastwest;fontSize=12;" vertex="1" parent="PBnQgTFj27SzLwrIIvQW-16">
          <mxGeometry y="190" width="410" height="26" as="geometry" />
        </mxCell>
        <mxCell id="PBnQgTFj27SzLwrIIvQW-25" value="+ curTokenIs(token: TokenType): bool" style="text;strokeColor=none;fillColor=none;align=left;verticalAlign=top;spacingLeft=4;spacingRight=4;overflow=hidden;rotatable=0;points=[[0,0.5],[1,0.5]];portConstraint=eastwest;fontSize=12;" vertex="1" parent="PBnQgTFj27SzLwrIIvQW-16">
          <mxGeometry y="216" width="410" height="26" as="geometry" />
        </mxCell>
        <mxCell id="PBnQgTFj27SzLwrIIvQW-40" value="+ peekTokenIs(token: TokenType): bool" style="text;strokeColor=none;fillColor=none;align=left;verticalAlign=top;spacingLeft=4;spacingRight=4;overflow=hidden;rotatable=0;points=[[0,0.5],[1,0.5]];portConstraint=eastwest;fontSize=12;" vertex="1" parent="PBnQgTFj27SzLwrIIvQW-16">
          <mxGeometry y="242" width="410" height="26" as="geometry" />
        </mxCell>
        <mxCell id="PBnQgTFj27SzLwrIIvQW-42" value="+ peekError(token: TokenType): void" style="text;strokeColor=none;fillColor=none;align=left;verticalAlign=top;spacingLeft=4;spacingRight=4;overflow=hidden;rotatable=0;points=[[0,0.5],[1,0.5]];portConstraint=eastwest;fontSize=12;" vertex="1" parent="PBnQgTFj27SzLwrIIvQW-16">
          <mxGeometry y="268" width="410" height="26" as="geometry" />
        </mxCell>
        <mxCell id="PBnQgTFj27SzLwrIIvQW-43" value="+ expectPeek(token: TokenType): bool" style="text;strokeColor=none;fillColor=none;align=left;verticalAlign=top;spacingLeft=4;spacingRight=4;overflow=hidden;rotatable=0;points=[[0,0.5],[1,0.5]];portConstraint=eastwest;fontSize=12;" vertex="1" parent="PBnQgTFj27SzLwrIIvQW-16">
          <mxGeometry y="294" width="410" height="26" as="geometry" />
        </mxCell>
        <mxCell id="PBnQgTFj27SzLwrIIvQW-26" value="+ registerPrefix(tokenType: TokenType, fn: PrefixParseFn): void" style="text;strokeColor=none;fillColor=none;align=left;verticalAlign=top;spacingLeft=4;spacingRight=4;overflow=hidden;rotatable=0;points=[[0,0.5],[1,0.5]];portConstraint=eastwest;fontSize=12;" vertex="1" parent="PBnQgTFj27SzLwrIIvQW-16">
          <mxGeometry y="320" width="410" height="26" as="geometry" />
        </mxCell>
        <mxCell id="PBnQgTFj27SzLwrIIvQW-44" value="+ registerInfix(tokenType: TokenType, fn: InfixParseFn): void" style="text;strokeColor=none;fillColor=none;align=left;verticalAlign=top;spacingLeft=4;spacingRight=4;overflow=hidden;rotatable=0;points=[[0,0.5],[1,0.5]];portConstraint=eastwest;fontSize=12;" vertex="1" parent="PBnQgTFj27SzLwrIIvQW-16">
          <mxGeometry y="346" width="410" height="26" as="geometry" />
        </mxCell>
        <mxCell id="PBnQgTFj27SzLwrIIvQW-38" value="+ peekPrecendence(): int" style="text;strokeColor=none;fillColor=none;align=left;verticalAlign=top;spacingLeft=4;spacingRight=4;overflow=hidden;rotatable=0;points=[[0,0.5],[1,0.5]];portConstraint=eastwest;fontSize=12;" vertex="1" parent="PBnQgTFj27SzLwrIIvQW-16">
          <mxGeometry y="372" width="410" height="26" as="geometry" />
        </mxCell>
        <mxCell id="PBnQgTFj27SzLwrIIvQW-45" value="+ curPrecendence(): int" style="text;strokeColor=none;fillColor=none;align=left;verticalAlign=top;spacingLeft=4;spacingRight=4;overflow=hidden;rotatable=0;points=[[0,0.5],[1,0.5]];portConstraint=eastwest;fontSize=12;" vertex="1" parent="PBnQgTFj27SzLwrIIvQW-16">
          <mxGeometry y="398" width="410" height="26" as="geometry" />
        </mxCell>
        <mxCell id="PBnQgTFj27SzLwrIIvQW-46" value="+ noPrefixParseFnError(tokenType: TokenType): void" style="text;strokeColor=none;fillColor=none;align=left;verticalAlign=top;spacingLeft=4;spacingRight=4;overflow=hidden;rotatable=0;points=[[0,0.5],[1,0.5]];portConstraint=eastwest;fontSize=12;" vertex="1" parent="PBnQgTFj27SzLwrIIvQW-16">
          <mxGeometry y="424" width="410" height="26" as="geometry" />
        </mxCell>
        <mxCell id="PBnQgTFj27SzLwrIIvQW-47" value="+ parseIdentifier(): Expression -- Identifier" style="text;strokeColor=none;fillColor=none;align=left;verticalAlign=top;spacingLeft=4;spacingRight=4;overflow=hidden;rotatable=0;points=[[0,0.5],[1,0.5]];portConstraint=eastwest;fontSize=12;" vertex="1" parent="PBnQgTFj27SzLwrIIvQW-16">
          <mxGeometry y="450" width="410" height="26" as="geometry" />
        </mxCell>
        <mxCell id="PBnQgTFj27SzLwrIIvQW-48" value="+ parseIntegerLiteral(): Expression -- IntegerLiteral" style="text;strokeColor=none;fillColor=none;align=left;verticalAlign=top;spacingLeft=4;spacingRight=4;overflow=hidden;rotatable=0;points=[[0,0.5],[1,0.5]];portConstraint=eastwest;fontSize=12;" vertex="1" parent="PBnQgTFj27SzLwrIIvQW-16">
          <mxGeometry y="476" width="410" height="26" as="geometry" />
        </mxCell>
        <mxCell id="PBnQgTFj27SzLwrIIvQW-49" value="+ parseStringLiteral(): Expression -- StringLiteral" style="text;strokeColor=none;fillColor=none;align=left;verticalAlign=top;spacingLeft=4;spacingRight=4;overflow=hidden;rotatable=0;points=[[0,0.5],[1,0.5]];portConstraint=eastwest;fontSize=12;" vertex="1" parent="PBnQgTFj27SzLwrIIvQW-16">
          <mxGeometry y="502" width="410" height="26" as="geometry" />
        </mxCell>
        <mxCell id="PBnQgTFj27SzLwrIIvQW-50" value="+ parseBoolean(): Expression -- Boolean" style="text;strokeColor=none;fillColor=none;align=left;verticalAlign=top;spacingLeft=4;spacingRight=4;overflow=hidden;rotatable=0;points=[[0,0.5],[1,0.5]];portConstraint=eastwest;fontSize=12;" vertex="1" parent="PBnQgTFj27SzLwrIIvQW-16">
          <mxGeometry y="528" width="410" height="26" as="geometry" />
        </mxCell>
        <mxCell id="PBnQgTFj27SzLwrIIvQW-51" value="+ parseArrayLiteral(): Expression -- ArrayLiteral" style="text;strokeColor=none;fillColor=none;align=left;verticalAlign=top;spacingLeft=4;spacingRight=4;overflow=hidden;rotatable=0;points=[[0,0.5],[1,0.5]];portConstraint=eastwest;fontSize=12;" vertex="1" parent="PBnQgTFj27SzLwrIIvQW-16">
          <mxGeometry y="554" width="410" height="26" as="geometry" />
        </mxCell>
        <mxCell id="PBnQgTFj27SzLwrIIvQW-52" value="+ parseHashLiteral(): Expression -- HashLiteral" style="text;strokeColor=none;fillColor=none;align=left;verticalAlign=top;spacingLeft=4;spacingRight=4;overflow=hidden;rotatable=0;points=[[0,0.5],[1,0.5]];portConstraint=eastwest;fontSize=12;" vertex="1" parent="PBnQgTFj27SzLwrIIvQW-16">
          <mxGeometry y="580" width="410" height="26" as="geometry" />
        </mxCell>
        <mxCell id="PBnQgTFj27SzLwrIIvQW-53" value="+ parseExpressionList(end TokenType): Expression[]" style="text;strokeColor=none;fillColor=none;align=left;verticalAlign=top;spacingLeft=4;spacingRight=4;overflow=hidden;rotatable=0;points=[[0,0.5],[1,0.5]];portConstraint=eastwest;fontSize=12;" vertex="1" parent="PBnQgTFj27SzLwrIIvQW-16">
          <mxGeometry y="606" width="410" height="26" as="geometry" />
        </mxCell>
        <mxCell id="PBnQgTFj27SzLwrIIvQW-54" value="+ parseFunctionParameters(): Identifier[]" style="text;strokeColor=none;fillColor=none;align=left;verticalAlign=top;spacingLeft=4;spacingRight=4;overflow=hidden;rotatable=0;points=[[0,0.5],[1,0.5]];portConstraint=eastwest;fontSize=12;" vertex="1" parent="PBnQgTFj27SzLwrIIvQW-16">
          <mxGeometry y="632" width="410" height="26" as="geometry" />
        </mxCell>
        <mxCell id="PBnQgTFj27SzLwrIIvQW-55" value="+ parseFunctionLiteral(): Expression -- FunctionLiteral" style="text;strokeColor=none;fillColor=none;align=left;verticalAlign=top;spacingLeft=4;spacingRight=4;overflow=hidden;rotatable=0;points=[[0,0.5],[1,0.5]];portConstraint=eastwest;fontSize=12;" vertex="1" parent="PBnQgTFj27SzLwrIIvQW-16">
          <mxGeometry y="658" width="410" height="26" as="geometry" />
        </mxCell>
        <mxCell id="PBnQgTFj27SzLwrIIvQW-56" value="+ parseCallExpression(function Expression): Expression -- CallExpression" style="text;strokeColor=none;fillColor=none;align=left;verticalAlign=top;spacingLeft=4;spacingRight=4;overflow=hidden;rotatable=0;points=[[0,0.5],[1,0.5]];portConstraint=eastwest;fontSize=12;" vertex="1" parent="PBnQgTFj27SzLwrIIvQW-16">
          <mxGeometry y="684" width="410" height="26" as="geometry" />
        </mxCell>
        <mxCell id="PBnQgTFj27SzLwrIIvQW-57" value="+ parseIndexExpression(left: Expression): Expression -- IndexExpression" style="text;strokeColor=none;fillColor=none;align=left;verticalAlign=top;spacingLeft=4;spacingRight=4;overflow=hidden;rotatable=0;points=[[0,0.5],[1,0.5]];portConstraint=eastwest;fontSize=12;" vertex="1" parent="PBnQgTFj27SzLwrIIvQW-16">
          <mxGeometry y="710" width="410" height="26" as="geometry" />
        </mxCell>
        <mxCell id="PBnQgTFj27SzLwrIIvQW-58" value="+ parsePrefixExpression(): Expression -- PrefixExpression" style="text;strokeColor=none;fillColor=none;align=left;verticalAlign=top;spacingLeft=4;spacingRight=4;overflow=hidden;rotatable=0;points=[[0,0.5],[1,0.5]];portConstraint=eastwest;fontSize=12;" vertex="1" parent="PBnQgTFj27SzLwrIIvQW-16">
          <mxGeometry y="736" width="410" height="26" as="geometry" />
        </mxCell>
        <mxCell id="PBnQgTFj27SzLwrIIvQW-59" value="+ parseGroupedExpression(): Expression" style="text;strokeColor=none;fillColor=none;align=left;verticalAlign=top;spacingLeft=4;spacingRight=4;overflow=hidden;rotatable=0;points=[[0,0.5],[1,0.5]];portConstraint=eastwest;fontSize=12;" vertex="1" parent="PBnQgTFj27SzLwrIIvQW-16">
          <mxGeometry y="762" width="410" height="26" as="geometry" />
        </mxCell>
        <mxCell id="PBnQgTFj27SzLwrIIvQW-60" value="+ parseInfixExpression(left: Expression): Expression -- InfixExpression" style="text;strokeColor=none;fillColor=none;align=left;verticalAlign=top;spacingLeft=4;spacingRight=4;overflow=hidden;rotatable=0;points=[[0,0.5],[1,0.5]];portConstraint=eastwest;fontSize=12;" vertex="1" parent="PBnQgTFj27SzLwrIIvQW-16">
          <mxGeometry y="788" width="410" height="26" as="geometry" />
        </mxCell>
        <mxCell id="PBnQgTFj27SzLwrIIvQW-61" value="+ parseIfExpression(): Expression -- IfExpression" style="text;strokeColor=none;fillColor=none;align=left;verticalAlign=top;spacingLeft=4;spacingRight=4;overflow=hidden;rotatable=0;points=[[0,0.5],[1,0.5]];portConstraint=eastwest;fontSize=12;" vertex="1" parent="PBnQgTFj27SzLwrIIvQW-16">
          <mxGeometry y="814" width="410" height="26" as="geometry" />
        </mxCell>
        <mxCell id="PBnQgTFj27SzLwrIIvQW-62" value="+ parseExpression(precendence: int): Expression" style="text;strokeColor=none;fillColor=none;align=left;verticalAlign=top;spacingLeft=4;spacingRight=4;overflow=hidden;rotatable=0;points=[[0,0.5],[1,0.5]];portConstraint=eastwest;fontSize=12;" vertex="1" parent="PBnQgTFj27SzLwrIIvQW-16">
          <mxGeometry y="840" width="410" height="26" as="geometry" />
        </mxCell>
        <mxCell id="PBnQgTFj27SzLwrIIvQW-63" value="+ parseExpressionStatement(): ExpressionStatement" style="text;strokeColor=none;fillColor=none;align=left;verticalAlign=top;spacingLeft=4;spacingRight=4;overflow=hidden;rotatable=0;points=[[0,0.5],[1,0.5]];portConstraint=eastwest;fontSize=12;" vertex="1" parent="PBnQgTFj27SzLwrIIvQW-16">
          <mxGeometry y="866" width="410" height="26" as="geometry" />
        </mxCell>
        <mxCell id="PBnQgTFj27SzLwrIIvQW-65" value="+ parseLetStatement(): LetStatement" style="text;strokeColor=none;fillColor=none;align=left;verticalAlign=top;spacingLeft=4;spacingRight=4;overflow=hidden;rotatable=0;points=[[0,0.5],[1,0.5]];portConstraint=eastwest;fontSize=12;" vertex="1" parent="PBnQgTFj27SzLwrIIvQW-16">
          <mxGeometry y="892" width="410" height="26" as="geometry" />
        </mxCell>
        <mxCell id="PBnQgTFj27SzLwrIIvQW-66" value="+ parseReturnStatement(): ReturnStatement" style="text;strokeColor=none;fillColor=none;align=left;verticalAlign=top;spacingLeft=4;spacingRight=4;overflow=hidden;rotatable=0;points=[[0,0.5],[1,0.5]];portConstraint=eastwest;fontSize=12;" vertex="1" parent="PBnQgTFj27SzLwrIIvQW-16">
          <mxGeometry y="918" width="410" height="26" as="geometry" />
        </mxCell>
        <mxCell id="PBnQgTFj27SzLwrIIvQW-68" value="+ parseLetStatement(): LetStatement" style="text;strokeColor=none;fillColor=none;align=left;verticalAlign=top;spacingLeft=4;spacingRight=4;overflow=hidden;rotatable=0;points=[[0,0.5],[1,0.5]];portConstraint=eastwest;fontSize=12;" vertex="1" parent="PBnQgTFj27SzLwrIIvQW-16">
          <mxGeometry y="944" width="410" height="26" as="geometry" />
        </mxCell>
        <mxCell id="PBnQgTFj27SzLwrIIvQW-69" value="+ parseBlockStatement(): BlockStatement" style="text;strokeColor=none;fillColor=none;align=left;verticalAlign=top;spacingLeft=4;spacingRight=4;overflow=hidden;rotatable=0;points=[[0,0.5],[1,0.5]];portConstraint=eastwest;fontSize=12;" vertex="1" parent="PBnQgTFj27SzLwrIIvQW-16">
          <mxGeometry y="970" width="410" height="26" as="geometry" />
        </mxCell>
        <mxCell id="PBnQgTFj27SzLwrIIvQW-67" value="+ parseStatement(): Statement" style="text;strokeColor=none;fillColor=none;align=left;verticalAlign=top;spacingLeft=4;spacingRight=4;overflow=hidden;rotatable=0;points=[[0,0.5],[1,0.5]];portConstraint=eastwest;fontSize=12;" vertex="1" parent="PBnQgTFj27SzLwrIIvQW-16">
          <mxGeometry y="996" width="410" height="26" as="geometry" />
        </mxCell>
        <mxCell id="PBnQgTFj27SzLwrIIvQW-70" value="+ ParseProgram(): Program" style="text;strokeColor=none;fillColor=none;align=left;verticalAlign=top;spacingLeft=4;spacingRight=4;overflow=hidden;rotatable=0;points=[[0,0.5],[1,0.5]];portConstraint=eastwest;fontSize=12;" vertex="1" parent="PBnQgTFj27SzLwrIIvQW-16">
          <mxGeometry y="1022" width="410" height="26" as="geometry" />
        </mxCell>
        <mxCell id="PBnQgTFj27SzLwrIIvQW-73" value="PrefixParseFn = func(): Expression" style="text;html=1;strokeColor=none;fillColor=none;align=center;verticalAlign=middle;whiteSpace=wrap;rounded=0;fontSize=13;" vertex="1" parent="1">
          <mxGeometry x="10" y="2330" width="210" height="30" as="geometry" />
        </mxCell>
        <mxCell id="PBnQgTFj27SzLwrIIvQW-74" value="+ parseLetStatement(): LetStatement" style="text;strokeColor=none;fillColor=none;align=left;verticalAlign=top;spacingLeft=4;spacingRight=4;overflow=hidden;rotatable=0;points=[[0,0.5],[1,0.5]];portConstraint=eastwest;fontSize=12;" vertex="1" parent="1">
          <mxGeometry x="70" y="2222" width="410" height="26" as="geometry" />
        </mxCell>
        <mxCell id="PBnQgTFj27SzLwrIIvQW-75" value="InfixParseFn = func(expression: Expression): Expression" style="text;html=1;strokeColor=none;fillColor=none;align=center;verticalAlign=middle;whiteSpace=wrap;rounded=0;fontSize=13;" vertex="1" parent="1">
          <mxGeometry x="10" y="2360" width="330" height="30" as="geometry" />
        </mxCell>
        <mxCell id="PBnQgTFj27SzLwrIIvQW-76" value="Precendence: int" style="swimlane;fontStyle=0;childLayout=stackLayout;horizontal=1;startSize=26;fillColor=none;horizontalStack=0;resizeParent=1;resizeParentMax=0;resizeLast=0;collapsible=1;marginBottom=0;" vertex="1" parent="1">
          <mxGeometry x="10" y="2400" width="180" height="150" as="geometry" />
        </mxCell>
        <mxCell id="PBnQgTFj27SzLwrIIvQW-77" value="&lt;ul style=&quot;line-height: 0.9&quot;&gt;&lt;li&gt;&lt;span style=&quot;font-size: 10px&quot;&gt;LOWEST = 0&lt;/span&gt;&lt;/li&gt;&lt;li&gt;&lt;span style=&quot;font-size: 10px&quot;&gt;EQUALS = 1 (&quot;==&quot;)&lt;/span&gt;&lt;/li&gt;&lt;li&gt;&lt;span style=&quot;font-size: 10px&quot;&gt;LESSGREATER = 2 (&quot;&amp;lt;&quot;, &quot;&amp;gt;&quot;)&lt;/span&gt;&lt;/li&gt;&lt;li&gt;&lt;span style=&quot;font-size: 10px&quot;&gt;SUM = 3 (&quot;+&quot;)&lt;/span&gt;&lt;/li&gt;&lt;li&gt;&lt;span style=&quot;font-size: 10px&quot;&gt;PRODUCT = 4 (&quot;*&quot;, &quot;/&quot;)&lt;/span&gt;&lt;/li&gt;&lt;li&gt;&lt;span style=&quot;font-size: 10px&quot;&gt;PREFIX = 5 (&quot;-x&quot;, &quot;!x&quot;)&lt;/span&gt;&lt;/li&gt;&lt;li&gt;&lt;span style=&quot;font-size: 10px&quot;&gt;CALL = 6 (&quot;fn(x)&quot;)&lt;/span&gt;&lt;/li&gt;&lt;li&gt;&lt;span style=&quot;font-size: 10px&quot;&gt;INDEX = 7 (&quot;x[0]&quot;)&lt;/span&gt;&lt;/li&gt;&lt;/ul&gt;" style="text;html=1;strokeColor=none;fillColor=none;align=left;verticalAlign=middle;whiteSpace=wrap;rounded=0;" vertex="1" parent="PBnQgTFj27SzLwrIIvQW-76">
          <mxGeometry y="26" width="180" height="124" as="geometry" />
        </mxCell>
        <mxCell id="PBnQgTFj27SzLwrIIvQW-78" value="Precendences: map[TokenType]int" style="swimlane;fontStyle=0;childLayout=stackLayout;horizontal=1;startSize=26;fillColor=none;horizontalStack=0;resizeParent=1;resizeParentMax=0;resizeLast=0;collapsible=1;marginBottom=0;" vertex="1" parent="1">
          <mxGeometry x="197" y="2400" width="200" height="150" as="geometry" />
        </mxCell>
        <mxCell id="PBnQgTFj27SzLwrIIvQW-79" value="&lt;ul style=&quot;line-height: 0.9&quot;&gt;&lt;li&gt;&lt;span style=&quot;font-size: 10px&quot;&gt;EQ : EQUALS&lt;/span&gt;&lt;/li&gt;&lt;li&gt;&lt;span style=&quot;font-size: 10px&quot;&gt;NOT_EQ : EQUALS&lt;/span&gt;&lt;/li&gt;&lt;li&gt;&lt;span style=&quot;font-size: 10px&quot;&gt;LT : LESSGREATER&lt;/span&gt;&lt;/li&gt;&lt;li&gt;&lt;span style=&quot;font-size: 10px&quot;&gt;GT: LESSGREATER&lt;/span&gt;&lt;/li&gt;&lt;li&gt;&lt;span style=&quot;font-size: 10px&quot;&gt;PLUS : SUM&lt;/span&gt;&lt;/li&gt;&lt;li&gt;&lt;span style=&quot;font-size: 10px&quot;&gt;MINUS : SUM&lt;/span&gt;&lt;/li&gt;&lt;li&gt;&lt;span style=&quot;font-size: 10px&quot;&gt;SLASH : PRODUCT&lt;/span&gt;&lt;/li&gt;&lt;li&gt;&lt;span style=&quot;font-size: 10px&quot;&gt;ASTERISK : PRODUCT&lt;/span&gt;&lt;/li&gt;&lt;li&gt;&lt;span style=&quot;font-size: 10px&quot;&gt;LBRACE : CALL&lt;/span&gt;&lt;/li&gt;&lt;li&gt;&lt;span style=&quot;font-size: 10px&quot;&gt;LBBRACKET : INDEX&lt;/span&gt;&lt;/li&gt;&lt;/ul&gt;" style="text;html=1;strokeColor=none;fillColor=none;align=left;verticalAlign=middle;whiteSpace=wrap;rounded=0;" vertex="1" parent="PBnQgTFj27SzLwrIIvQW-78">
          <mxGeometry y="26" width="200" height="124" as="geometry" />
        </mxCell>
        <mxCell id="PBnQgTFj27SzLwrIIvQW-81" value="" style="endArrow=classic;html=1;rounded=0;fontSize=13;exitX=0.5;exitY=1;exitDx=0;exitDy=0;entryX=0.5;entryY=0;entryDx=0;entryDy=0;" edge="1" parent="1" source="PBnQgTFj27SzLwrIIvQW-8" target="PBnQgTFj27SzLwrIIvQW-16">
          <mxGeometry width="50" height="50" relative="1" as="geometry">
            <mxPoint x="330" y="1280" as="sourcePoint" />
            <mxPoint x="380" y="1230" as="targetPoint" />
          </mxGeometry>
        </mxCell>
      </root>
    </mxGraphModel>
  </diagram>
</mxfile>
